<mxfile host="app.diagrams.net" agent="Mozilla/5.0 (X11; Ubuntu; Linux x86_64; rv:132.0) Gecko/20100101 Firefox/132.0" version="24.9.1">
  <diagram name="Page-1" id="ThRaZCIu6w8lJUBIYNiy">
    <mxGraphModel dx="477" dy="1240" grid="0" gridSize="10" guides="1" tooltips="1" connect="1" arrows="1" fold="1" page="0" pageScale="1" pageWidth="850" pageHeight="1100" math="0" shadow="0">
      <root>
        <mxCell id="0" />
        <mxCell id="1" parent="0" />
        <mxCell id="NQ8hDXVR4O_9U4n_Tid5-1" value="" style="rounded=1;whiteSpace=wrap;html=1;" vertex="1" parent="1">
          <mxGeometry x="136" y="-143" width="120" height="60" as="geometry" />
        </mxCell>
        <mxCell id="NQ8hDXVR4O_9U4n_Tid5-3" value="" style="rounded=1;whiteSpace=wrap;html=1;" vertex="1" parent="1">
          <mxGeometry x="136" y="-21" width="120" height="60" as="geometry" />
        </mxCell>
        <mxCell id="NQ8hDXVR4O_9U4n_Tid5-4" value="" style="endArrow=none;html=1;rounded=0;fontSize=12;startSize=8;endSize=8;curved=1;entryX=0.5;entryY=1;entryDx=0;entryDy=0;exitX=0.5;exitY=0;exitDx=0;exitDy=0;" edge="1" parent="1" source="NQ8hDXVR4O_9U4n_Tid5-3" target="NQ8hDXVR4O_9U4n_Tid5-1">
          <mxGeometry width="50" height="50" relative="1" as="geometry">
            <mxPoint x="55" y="225" as="sourcePoint" />
            <mxPoint x="105" y="175" as="targetPoint" />
          </mxGeometry>
        </mxCell>
      </root>
    </mxGraphModel>
  </diagram>
</mxfile>
